<svg xmlns="http://www.w3.org/2000/svg" width="180.233" height="23" viewBox="0 0 180.233 23">
  <g id="Group_28563" data-name="Group 28563" transform="translate(-385.708 -281.398)">
    <path id="Path_18145" data-name="Path 18145" d="M415.948,304.4a67.538,67.538,0,0,1-13.966-1.839c-5.257-1.086-10.193-2.112-16-1.667l-.278-1.026c6.278-.473,11.722.639,16.985,1.726,5.245,1.083,10.226,2.108,15.987,1.664a17.879,17.879,0,0,0,2.357-.318c3.262-.711,3.863-2.248,4.57-4.033a6.458,6.458,0,0,1,4.944-4.581,18.28,18.28,0,0,1,3.614-.585c6.376-.471,11.824,1.283,17.083,3a72.553,72.553,0,0,0,8.276,2.339,26.9,26.9,0,0,0,7.5.518c5.375-.41,7.251-4.615,9.057-8.683,1.96-4.407,4-8.962,10.692-9.469A13.927,13.927,0,0,1,494.4,283a35.2,35.2,0,0,1,7.667,5.953c3.7,3.448,7.51,7.013,12.487,7.013.268,0,.532-.013.791-.033,5.565-.418,7.609-2.443,9.778-4.581,2.3-2.272,4.673-4.624,11.213-5.118.4-.031.775-.046,1.155-.046,5.431,0,9.4,3,13,6.107.506.431.992.875,1.5,1.309,3.855,3.4,7.84,6.9,12.856,6.9.268,0,.548-.008.812-.028l.273,1.024c-6.636.517-11.22-3.491-15.613-7.358-.506-.433-1-.87-1.5-1.3-3.516-3.03-7.5-5.96-12.209-5.578-5.558.418-7.606,2.441-9.776,4.582-2.3,2.272-4.673,4.62-11.208,5.116-6.621.493-11.07-3.558-15.277-7.5a34.262,34.262,0,0,0-7.309-5.71,11.067,11.067,0,0,0-5.984-1.277c-5.385.4-7.263,4.609-9.073,8.679-1.962,4.406-4,8.958-10.691,9.469a30.738,30.738,0,0,1-8.481-.576,74.553,74.553,0,0,1-8.609-2.426c-5.18-1.689-10.068-3.293-15.762-2.853a15.484,15.484,0,0,0-2.989.475c-2.711.764-3.311,2.275-3.936,3.875-.723,1.813-1.531,3.861-5.742,4.776a20.793,20.793,0,0,1-2.821.394C417.931,304.362,416.93,304.4,415.948,304.4Z" transform="translate(0 0)" fill="red"/>
  </g>
</svg>
