<svg width="" height="" viewBox="0 0 281 46" fill="none" xmlns="http://www.w3.org/2000/svg">
<path d="M122.34 17.65C124.507 19.8767 125.59 23.08 125.59 27.26V45.12H122.66V27.49C122.66 24.06 121.82 21.44 120.14 19.65C119.231 18.7298 118.137 18.0132 116.93 17.5477C115.723 17.0823 114.431 16.8785 113.14 16.95C111.633 16.8806 110.128 17.1318 108.725 17.6868C107.321 18.2419 106.052 19.0882 105 20.17C102.909 22.5591 101.833 25.6696 102 28.84V45.12H99V27.49C99 24.06 98.16 21.44 96.48 19.65C95.5714 18.7293 94.4774 18.0123 93.2705 17.5468C92.0636 17.0813 90.7715 16.8779 89.48 16.95C87.9677 16.8763 86.457 17.1253 85.0484 17.6805C83.6397 18.2357 82.3654 19.0843 81.31 20.17C79.2191 22.5591 78.1428 25.6696 78.31 28.84V45.12H75.38V14.55H78.19V21.11C79.1588 19.0199 80.7428 17.2754 82.73 16.11C84.9173 14.8757 87.3994 14.2604 89.91 14.33C92.3755 14.2598 94.808 14.9096 96.91 16.2C98.8849 17.5012 100.345 19.4494 101.04 21.71C102.037 19.4647 103.703 17.5822 105.81 16.32C108.102 14.955 110.733 14.2619 113.4 14.32C117.187 14.32 120.167 15.43 122.34 17.65Z" fill="#FF7A04"/>
<path d="M152 17.22C154 19.1467 155 21.9867 155 25.74V45.12H152.19V39.67C151.243 41.4534 149.783 42.9127 148 43.86C145.915 44.9066 143.602 45.4186 141.27 45.35C137.87 45.35 135.203 44.55 133.27 42.95C132.309 42.2061 131.536 41.2463 131.015 40.1483C130.494 39.0503 130.239 37.845 130.27 36.63C130.234 35.4613 130.461 34.2995 130.933 33.23C131.406 32.1604 132.112 31.2105 133 30.45C134.82 28.87 137.72 28.08 141.7 28.08H152.18V25.62C152.18 22.7667 151.41 20.6 149.87 19.12C148.33 17.63 146.07 16.89 143.11 16.89C141.105 16.893 139.117 17.2694 137.25 18C135.513 18.6291 133.911 19.5827 132.53 20.81L131.07 18.7C132.677 17.2818 134.55 16.1974 136.58 15.51C138.741 14.7472 141.018 14.3615 143.31 14.37C147.1 14.32 150 15.28 152 17.22ZM148.1 41.22C149.93 39.9764 151.328 38.194 152.1 36.12V30.36H141.73C138.73 30.36 136.55 30.91 135.2 32C134.538 32.5441 134.013 33.2352 133.666 34.0182C133.319 34.8012 133.159 35.6544 133.2 36.51C133.165 37.417 133.349 38.3191 133.735 39.1404C134.121 39.9618 134.699 40.6784 135.42 41.23C137.25 42.4956 139.448 43.1181 141.67 43C143.958 43.0571 146.21 42.4304 148.14 41.2L148.1 41.22Z" fill="#FF7A04"/>
<path d="M169.52 16.1C171.732 14.8549 174.243 14.2393 176.78 14.32V17.19L176.08 17.13C174.594 17.0413 173.107 17.2811 171.724 17.8325C170.341 18.3838 169.097 19.2331 168.08 20.32C166.16 22.45 165.21 25.4 165.21 29.19V45.12H162.28V14.55H165.09V21.23C165.964 19.0805 167.521 17.2779 169.52 16.1V16.1Z" fill="#FF7A04"/>
<path d="M191.4 28.78L183.4 36.04V45.12H180.47V1.67H183.4V32.41L203 14.55H206.74L193.57 26.91L208 45.12H204.4L191.4 28.78Z" fill="#FF7A04"/>
<path d="M235.55 30.54H209.26C209.292 32.7793 209.917 34.9701 211.07 36.89C212.178 38.7224 213.769 40.2138 215.67 41.2C217.69 42.2327 219.932 42.7546 222.2 42.72C224.097 42.7385 225.979 42.371 227.73 41.64C229.391 40.944 230.852 39.844 231.98 38.44L233.68 40.38C232.333 41.9932 230.618 43.2588 228.68 44.07C226.328 45.0238 223.797 45.4544 221.262 45.3318C218.727 45.2092 216.249 44.5364 214 43.36C211.662 42.0812 209.727 40.1768 208.41 37.86C207.046 35.4179 206.355 32.6569 206.41 29.86C206.363 27.0763 207.017 24.3254 208.31 21.86C209.512 19.5677 211.326 17.6535 213.55 16.33C215.835 15.028 218.42 14.3433 221.05 14.3433C223.68 14.3433 226.265 15.028 228.55 16.33C230.759 17.6401 232.565 19.5324 233.77 21.8C235.065 24.2648 235.718 27.0161 235.67 29.8L235.55 30.54ZM215.23 18.33C213.523 19.2736 212.098 20.6541 211.1 22.33C210.051 24.122 209.441 26.1369 209.32 28.21H232.74C232.657 26.158 232.058 24.16 231 22.4C229.981 20.7302 228.548 19.3523 226.84 18.4C225.063 17.3842 223.047 16.8628 221 16.89C218.985 16.8646 216.997 17.3606 215.23 18.33V18.33Z" fill="#FF7A04"/>
<path d="M254.87 43.19C254.073 43.9243 253.124 44.474 252.09 44.8C250.964 45.1702 249.785 45.3559 248.6 45.35C247.48 45.4208 246.357 45.2632 245.3 44.8867C244.243 44.5102 243.273 43.9228 242.45 43.16C241.696 42.3303 241.116 41.3574 240.745 40.2993C240.374 39.2411 240.219 38.1191 240.29 37V7.87H243.22V14.55H252.94V17.07H243.22V36.75C243.099 38.3874 243.611 40.0089 244.65 41.28C245.207 41.8273 245.874 42.2495 246.607 42.5185C247.34 42.7875 248.121 42.8971 248.9 42.84C250.639 42.9008 252.336 42.2924 253.64 41.14L254.87 43.19Z" fill="#FF7A04"/>
<path d="M261.44 44.24C259.529 43.6694 257.756 42.7131 256.23 41.43L257.58 39.09C259.021 40.247 260.656 41.1377 262.41 41.72C264.393 42.4306 266.484 42.7893 268.59 42.78C271.67 42.78 273.95 42.27 275.41 41.26C276.108 40.805 276.678 40.1776 277.063 39.4384C277.449 38.6992 277.637 37.8732 277.61 37.04C277.63 36.484 277.533 35.93 277.326 35.4134C277.12 34.8969 276.808 34.4291 276.41 34.04C275.549 33.2711 274.522 32.7101 273.41 32.4C272.237 32.0533 270.617 31.6833 268.55 31.29C266.566 30.9639 264.607 30.496 262.69 29.89C261.238 29.3993 259.932 28.5537 258.89 27.43C257.776 26.1303 257.209 24.449 257.31 22.74C257.296 21.5732 257.56 20.4198 258.082 19.3761C258.604 18.3324 259.368 17.4286 260.31 16.74C262.31 15.16 265.17 14.37 268.89 14.37C270.852 14.3696 272.805 14.6456 274.69 15.19C276.366 15.6253 277.951 16.3568 279.37 17.35L278.03 19.7C276.729 18.7923 275.281 18.1157 273.75 17.7C272.153 17.2287 270.496 16.9896 268.83 16.99C265.977 16.99 263.83 17.5167 262.39 18.57C261.716 19.033 261.165 19.6544 260.787 20.3797C260.408 21.105 260.214 21.912 260.22 22.73C260.185 23.3187 260.277 23.908 260.489 24.4583C260.702 25.0085 261.029 25.5069 261.45 25.92C262.308 26.7076 263.334 27.289 264.45 27.62C265.637 27.9867 267.303 28.3867 269.45 28.82C271.403 29.1466 273.331 29.6077 275.22 30.2C276.653 30.6228 277.954 31.4041 279 32.47C280.084 33.7215 280.637 35.347 280.54 37C280.565 38.1996 280.288 39.3861 279.734 40.4504C279.18 41.5146 278.367 42.4224 277.37 43.09C275.27 44.61 272.303 45.37 268.47 45.37C266.081 45.3747 263.707 44.9931 261.44 44.24V44.24Z" fill="#FF7A04"/>
<path d="M51.66 19.47C53.3924 19.4402 55.1001 19.8827 56.6 20.75C58.0179 21.5957 59.174 22.8175 59.94 24.28C60.7782 25.9156 61.2006 27.7324 61.17 29.57C61.2015 31.4173 60.7791 33.244 59.94 34.89C59.1772 36.3574 58.0206 37.5832 56.6 38.43C55.0819 39.2759 53.3729 39.72 51.635 39.72C49.8971 39.72 48.1881 39.2759 46.67 38.43C45.2423 37.5889 44.0811 36.3619 43.32 34.89C42.4762 33.2457 42.0536 31.4178 42.09 29.57C42.0548 27.7319 42.4775 25.914 43.32 24.28C44.087 22.815 45.2471 21.5926 46.67 20.75C48.1905 19.8796 49.9183 19.4373 51.67 19.47H51.66ZM51.67 13.66C49.3959 13.6319 47.1357 14.0182 45 14.8C43.0916 15.5097 41.3466 16.5982 39.87 18C38.4101 19.4092 37.268 21.1138 36.52 23C35.7144 25.0608 35.3138 27.2575 35.34 29.47C35.3136 31.6695 35.7144 33.8532 36.52 35.9C37.2691 37.7856 38.411 39.4901 39.87 40.9C41.3359 42.3397 43.082 43.463 45 44.2C49.2778 45.7467 53.9622 45.7467 58.24 44.2C60.1602 43.4962 61.9161 42.4073 63.4 41C64.8487 39.5856 65.9833 37.882 66.73 36C67.539 33.9539 67.9432 31.7701 67.92 29.57C67.956 27.3233 67.5518 25.0913 66.73 23C65.982 21.1187 64.8476 19.4154 63.4 18C61.9274 16.5784 60.1777 15.4755 58.26 14.76C56.1449 13.9961 53.9085 13.6234 51.66 13.66H51.67Z" fill="#FF7A04"/>
<path d="M29.59 13.89H22.9V45.12H29.59V13.89Z" fill="#FF7A04"/>
<path d="M26.25 0.86C25.548 0.854855 24.8574 1.03786 24.25 1.39C23.665 1.73991 23.1849 2.24074 22.86 2.84C22.5068 3.49363 22.3277 4.22715 22.34 4.97C22.3293 5.70314 22.5084 6.42657 22.86 7.07C23.1919 7.65624 23.671 8.14571 24.25 8.49C24.8574 8.84214 25.548 9.02515 26.25 9.02C26.9524 9.02812 27.6438 8.84491 28.25 8.49C28.8335 8.15146 29.314 7.66061 29.64 7.07C29.9951 6.42752 30.1777 5.70402 30.17 4.97C30.1801 4.22616 29.9975 3.49236 29.64 2.84C29.318 2.23866 28.8372 1.73714 28.25 1.39C27.6438 1.03509 26.9524 0.851878 26.25 0.86V0.86Z" fill="#FF7A04"/>
<path d="M15.59 38C14.7792 38.3948 13.9402 38.7291 13.08 39C12.3693 39.2144 11.6322 39.3288 10.89 39.34C10.2645 39.3652 9.64257 39.2346 9.08001 38.96C8.55898 38.6695 8.15577 38.2062 7.94001 37.65C7.64515 36.8368 7.50936 35.9745 7.54001 35.11V20.11H16.76V15.07H7.54001V6.5H0.850004V36.32C0.828349 37.7255 1.06914 39.1228 1.56 40.44C1.96683 41.5142 2.6172 42.4795 3.46001 43.26C4.26856 43.991 5.21799 44.5491 6.25001 44.9C7.3328 45.2455 8.46343 45.4177 9.6 45.41C10.9253 45.4073 12.2429 45.2085 13.51 44.82C14.8342 44.4085 16.1035 43.8377 17.29 43.12L15.59 38Z" fill="#FF7A04"/>
</svg>
