<svg width="" height="" viewBox="0 0 85 66" fill="none" xmlns="http://www.w3.org/2000/svg">
<path d="M40.94 33.33V4.19L27 19L24.55 21.6L40.94 33.33ZM59.73 21.62L57.31 19.05L43.31 4.19V33.33L59.73 21.62ZM40.94 61.5V37.94V36.24L25.32 25.11L39.78 61.28L39.85 61.46C39.9601 61.8206 40.1328 62.1591 40.36 62.46V62.46C40.47 62.6 40.6017 62.7216 40.75 62.82L40.94 62.95V61.5ZM58.94 25.11L43.32 36.24V37.94V62.94L43.51 62.81C43.6531 62.7086 43.781 62.5874 43.89 62.45V62.45C44.1214 62.1517 44.2944 61.8125 44.4 61.45V61.45L44.48 61.27L58.94 25.11ZM63.32 22L62.5 22.58L46.68 62.16L46.61 62.33C46.416 62.9194 46.1104 63.466 45.71 63.94V63.94C45.4828 64.2191 45.2206 64.4678 44.93 64.68C44.6412 64.8943 44.3293 65.0754 44 65.22V65.22C43.4089 65.4725 42.7728 65.6027 42.13 65.6027C41.4872 65.6027 40.8511 65.4725 40.26 65.22C39.9264 65.0778 39.6109 64.8965 39.32 64.68C39.0316 64.4651 38.7698 64.2167 38.54 63.94C38.1428 63.4638 37.8376 62.9178 37.64 62.33V62.33L37.58 62.16L21.76 22.56L20.93 22L2.72001 9L2.44001 8.8C2.10785 8.58563 1.7935 8.34486 1.50001 8.08V8.08C1.02817 7.64055 0.650533 7.10981 0.39001 6.52C0.0190018 5.66066 -0.0840316 4.70936 0.0943853 3.79051C0.272802 2.87166 0.724363 2.02805 1.39001 1.37C2.25997 0.504864 3.43318 0.0133366 4.66001 0L79.6 0C80.834 0.00705428 82.0157 0.499137 82.89 1.37C83.3311 1.81321 83.6785 2.34065 83.9114 2.92092C84.1444 3.50118 84.2582 4.1224 84.2461 4.74757C84.234 5.37274 84.0961 5.98908 83.8408 6.55987C83.5855 7.13066 83.2179 7.64423 82.76 8.07V8.07C82.4452 8.33471 82.1109 8.57539 81.76 8.79L81.48 8.99L63.32 22ZM44.88 2.38L61.68 20.23L80.16 7.05L80.48 6.83C80.7118 6.67852 80.9354 6.51496 81.15 6.34V6.34C81.3843 6.12384 81.5715 5.86173 81.7 5.57C81.8228 5.28255 81.8842 4.97257 81.88 4.66C81.8827 4.35938 81.8256 4.06122 81.7121 3.78284C81.5985 3.50446 81.4308 3.25141 81.2187 3.03836C81.0066 2.82532 80.7543 2.65653 80.4764 2.54179C80.1985 2.42706 79.9006 2.36866 79.6 2.37H44.88V2.38ZM39.38 2.38H4.66001C4.0636 2.37202 3.48702 2.59405 3.05001 3C2.83652 3.21213 2.66734 3.4646 2.55231 3.74271C2.43729 4.02083 2.37872 4.31904 2.38001 4.62C2.37901 4.93328 2.44374 5.24329 2.57001 5.53C2.6948 5.82126 2.87868 6.08346 3.11001 6.3V6.3C3.32091 6.47968 3.54486 6.64347 3.78001 6.79L4.09001 7.01L22.57 20.23L39.38 2.38Z" fill="#FF7A04"/>
</svg>
